<svg width="154" height="155" viewBox="0 0 154 155" fill="none" xmlns="http://www.w3.org/2000/svg">
<path d="M57.5092 9.15094C58.0592 9.50094 58.4492 9.98094 58.6692 10.6109C58.8692 11.1709 58.8992 11.7209 58.7792 12.2409C58.6492 12.7709 58.3692 13.2409 57.9292 13.6609C57.4892 14.0909 56.9092 14.4209 56.1992 14.6709L51.6592 16.2609L47.9492 5.73094L52.2992 4.21094C53.0092 3.96094 53.6692 3.86094 54.2692 3.91094C54.8692 3.96094 55.3692 4.14094 55.7892 4.46094C56.1992 4.78094 56.4992 5.20094 56.6792 5.72094C56.8992 6.33094 56.9092 6.91094 56.7292 7.43094C56.5492 7.96094 56.2092 8.40094 55.7292 8.76094C56.3592 8.67094 56.9592 8.80094 57.5092 9.15094ZM51.5892 9.34094L53.5192 8.66094C54.0192 8.48094 54.3692 8.23094 54.5592 7.91094C54.7492 7.59094 54.7692 7.22094 54.6292 6.79094C54.4792 6.37094 54.2292 6.09094 53.8792 5.95094C53.5292 5.81094 53.0992 5.83094 52.5992 6.01094L50.6592 6.70094L51.5892 9.34094ZM56.3592 12.2809C56.5592 11.9409 56.5892 11.5509 56.4292 11.1009C56.2692 10.6509 55.9992 10.3509 55.5992 10.1909C55.2092 10.0409 54.7592 10.0509 54.2392 10.2309L52.1592 10.9609L53.1492 13.8009L55.2792 13.0509C55.7992 12.8909 56.1592 12.6209 56.3592 12.2809Z" fill="#124759"/>
<path d="M63.0808 3.20992L63.5708 5.96992L67.2708 5.30992L67.5808 7.05992L63.8808 7.71992L64.4008 10.6299L68.5708 9.87992L68.8908 11.6799L62.5108 12.8199L60.5508 1.80992L66.9308 0.669922L67.2508 2.46992L63.0808 3.20992Z" fill="#124759"/>
<path d="M78.3491 11.21L74.2091 6.3L74.2891 11.28L72.0491 11.32L71.8691 0.15L74.1091 0.11L74.1891 5.12L78.1691 0.05L80.8791 0L76.3591 5.61L81.1891 11.16L78.3491 11.21Z" fill="#124759"/>
<path d="M87.4009 0.709219L86.1109 11.7992L83.8809 11.5392L85.1709 0.449219L87.4009 0.709219Z" fill="#124759"/>
<path d="M98.4794 2.94016L96.6394 10.5602C96.3794 11.6202 95.8794 12.3702 95.1294 12.8002C94.3794 13.2402 93.4894 13.3302 92.4594 13.0902C91.4194 12.8402 90.6594 12.3402 90.1694 11.5802C89.6794 10.8202 89.5594 9.91016 89.8194 8.83016L91.9994 9.36016C91.8994 9.83016 91.9194 10.2202 92.0694 10.5302C92.2194 10.8402 92.4994 11.0402 92.8994 11.1402C93.2894 11.2402 93.6194 11.1802 93.8894 10.9802C94.1594 10.7802 94.3394 10.4602 94.4494 10.0302L96.2894 2.41016L98.4794 2.94016Z" fill="#124759"/>
<path d="M105.239 17.3691L103.459 11.1991L101.499 15.7691L99.4395 14.8891L103.839 4.61914L105.899 5.49914L103.929 10.0991L109.639 7.09914L112.129 8.15914L105.709 11.4291L107.849 18.4691L105.239 17.3691Z" fill="#124759"/>
<path d="M129.26 19.8904L119.14 26.1404L117 24.4604L120.68 13.1504L122.57 14.6304L119.5 23.5104L127.39 18.4104L129.26 19.8904Z" fill="#124759"/>
<path d="M133.641 24.4401L125.611 32.2001L124.051 30.5901L132.081 22.8301L133.641 24.4401Z" fill="#124759"/>
<path d="M140.59 34.1498C140.74 35.1398 140.62 36.0798 140.22 36.9698C139.82 37.8598 139.17 38.6398 138.26 39.2998C137.35 39.9598 136.42 40.3398 135.46 40.4398C134.5 40.5398 133.57 40.3698 132.67 39.9198C131.77 39.4698 130.98 38.7698 130.29 37.8198L127.99 34.6698L137.01 28.0898L139.31 31.2398C140.01 32.1898 140.43 33.1598 140.59 34.1498ZM134.17 38.2698C135.06 38.4098 135.98 38.1398 136.92 37.4498C137.86 36.7598 138.41 35.9698 138.56 35.0698C138.71 34.1698 138.44 33.2398 137.75 32.2898L136.82 31.0098L130.86 35.3598L131.79 36.6398C132.48 37.5798 133.27 38.1298 134.17 38.2698Z" fill="#124759"/>
<path d="M144.46 42.9096L141.95 44.1596L143.63 47.5296L142.04 48.3196L140.36 44.9496L137.71 46.2696L139.6 50.0696L137.97 50.8796L135.08 45.0796L145.09 40.0996L147.98 45.8996L146.35 46.7096L144.46 42.9096Z" fill="#124759"/>
<path d="M140.521 55.7703C140.741 54.7903 141.201 53.9403 141.891 53.2003C142.581 52.4603 143.451 51.9403 144.511 51.6303C145.551 51.3203 146.561 51.3003 147.541 51.5403C148.521 51.7803 149.371 52.2603 150.081 52.9603C150.801 53.6603 151.301 54.5103 151.601 55.5203C151.901 56.5303 151.931 57.5303 151.711 58.5003C151.481 59.4703 151.021 60.3203 150.331 61.0503C149.641 61.7803 148.771 62.3003 147.731 62.6003C146.681 62.9103 145.661 62.9403 144.681 62.7003C143.701 62.4603 142.861 61.9903 142.141 61.2803C141.421 60.5803 140.921 59.7303 140.621 58.7203C140.321 57.7303 140.291 56.7403 140.521 55.7703ZM143.471 59.7503C143.911 60.1603 144.431 60.4203 145.061 60.5403C145.681 60.6603 146.351 60.6103 147.071 60.4003C147.791 60.1903 148.371 59.8703 148.831 59.4303C149.291 59.0003 149.591 58.4903 149.731 57.9203C149.871 57.3503 149.851 56.7303 149.661 56.0903C149.471 55.4403 149.161 54.9203 148.731 54.5003C148.301 54.0903 147.771 53.8203 147.151 53.7003C146.531 53.5803 145.861 53.6303 145.151 53.8403C144.441 54.0503 143.841 54.3703 143.381 54.8103C142.921 55.2503 142.611 55.7503 142.471 56.3403C142.321 56.9203 142.341 57.5403 142.531 58.1803C142.731 58.8203 143.041 59.3503 143.471 59.7503Z" fill="#124759"/>
<path d="M146.69 73.5909C146.87 73.2409 147.13 72.9609 147.47 72.7509C147.8 72.5409 148.17 72.4309 148.58 72.4109C149 72.3909 149.38 72.4809 149.73 72.6609C150.08 72.8409 150.36 73.1009 150.57 73.4409C150.78 73.7709 150.89 74.1409 150.91 74.5509C150.93 74.9709 150.84 75.3509 150.66 75.7009C150.48 76.0509 150.22 76.3309 149.88 76.5409C149.55 76.7509 149.17 76.8609 148.75 76.8809C148.34 76.9009 147.97 76.8109 147.62 76.6309C147.27 76.4509 146.99 76.1809 146.78 75.8409C146.57 75.5009 146.46 75.1209 146.44 74.7109C146.42 74.3209 146.5 73.9409 146.69 73.5909Z" fill="#124759"/>
<path d="M146.1 94.7791C145.52 95.0791 144.9 95.1691 144.26 95.0391C143.67 94.9191 143.19 94.6791 142.8 94.2991C142.41 93.9191 142.14 93.4391 142 92.8491C141.86 92.2591 141.86 91.5891 142 90.8491L142.93 86.1191L153.89 88.2691L153 92.7891C152.85 93.5291 152.61 94.1491 152.26 94.6391C151.91 95.1291 151.5 95.4691 151.01 95.6691C150.53 95.8591 150.01 95.9091 149.47 95.7991C148.83 95.6691 148.33 95.3991 147.97 94.9791C147.61 94.5591 147.39 94.0391 147.33 93.4391C147.08 94.0291 146.68 94.4791 146.1 94.7791ZM143.98 92.1991C144.17 92.5491 144.5 92.7691 144.96 92.8591C145.43 92.9491 145.83 92.8691 146.16 92.6091C146.49 92.3491 146.7 91.9491 146.81 91.4191L147.23 89.2491L144.28 88.6691L143.85 90.8791C143.74 91.4091 143.78 91.8491 143.98 92.1991ZM148.93 89.5791L148.54 91.5891C148.44 92.1091 148.48 92.5391 148.66 92.8691C148.84 93.1991 149.15 93.4091 149.59 93.4891C150.03 93.5691 150.4 93.4991 150.69 93.2691C150.99 93.0291 151.19 92.6491 151.29 92.1291L151.68 90.1191L148.93 89.5791Z" fill="#124759"/>
<path d="M148.401 102.59L145.771 101.62L144.471 105.15L142.801 104.53L144.101 101L141.321 99.9702L139.851 103.95L138.141 103.32L140.391 97.2402L150.881 101.12L148.631 107.2L146.921 106.57L148.401 102.59Z" fill="#124759"/>
<path d="M133.75 111.73L140.08 110.66L135.75 108.2L136.86 106.25L146.57 111.77L145.46 113.72L141.11 111.24L143.46 117.25L142.12 119.6L139.58 112.86L132.34 114.19L133.75 111.73Z" fill="#124759"/>
<path d="M138.211 124.819L129.311 118.069L130.661 116.289L139.561 123.039L138.211 124.819Z" fill="#124759"/>
<path d="M130.65 133.241L125.02 127.781C124.24 127.021 123.85 126.211 123.86 125.341C123.87 124.471 124.24 123.651 124.97 122.891C125.71 122.121 126.53 121.721 127.43 121.681C128.33 121.641 129.18 122.011 129.98 122.781L128.42 124.391C128.07 124.061 127.72 123.891 127.38 123.861C127.04 123.831 126.72 123.971 126.43 124.271C126.15 124.561 126.02 124.871 126.06 125.201C126.1 125.531 126.27 125.851 126.6 126.161L132.23 131.621L130.65 133.241Z" fill="#124759"/>
<path d="M114.79 131.75L121.01 133.34L118.06 129.34L119.86 128.01L126.49 137L124.69 138.33L121.72 134.3L121.42 140.74L119.24 142.35L119.66 135.16L112.51 133.44L114.79 131.75Z" fill="#124759"/>
<path d="M100.459 151.2L100.189 139.31L102.719 138.32L110.609 147.22L108.379 148.1L102.279 140.96L102.679 150.34L100.459 151.2Z" fill="#124759"/>
<path d="M94.2995 152.659L91.6895 141.799L93.8695 141.279L96.4795 152.139L94.2995 152.659Z" fill="#124759"/>
<path d="M82.41 153.709C81.48 153.339 80.73 152.749 80.17 151.959C79.61 151.159 79.27 150.209 79.16 149.089C79.05 147.969 79.2 146.979 79.6 146.099C80 145.219 80.62 144.509 81.47 143.969C82.31 143.429 83.32 143.099 84.49 142.989L88.38 142.609L89.46 153.729L85.57 154.109C84.39 154.209 83.34 154.079 82.41 153.709ZM82.13 146.079C81.55 146.779 81.32 147.709 81.43 148.859C81.54 150.019 81.95 150.889 82.65 151.479C83.35 152.069 84.28 152.309 85.45 152.199L87.03 152.049L86.32 144.709L84.74 144.859C83.58 144.979 82.71 145.389 82.13 146.079Z" fill="#124759"/>
<path d="M72.9108 152.6L73.1008 149.81L69.3508 149.55L69.4708 147.78L73.2208 148.04L73.4308 145.09L69.2008 144.8L69.3308 142.98L75.7908 143.43L75.0108 154.59L68.5508 154.14L68.6808 152.32L72.9108 152.6Z" fill="#124759"/>
<path d="M63.8107 142.68C64.5407 143.37 65.0507 144.2 65.3307 145.17C65.6107 146.14 65.6207 147.15 65.3607 148.22C65.0907 149.28 64.6107 150.16 63.9007 150.88C63.1907 151.6 62.3507 152.09 61.3907 152.35C60.4207 152.61 59.4307 152.62 58.4207 152.36C57.4007 152.1 56.5207 151.63 55.8007 150.94C55.0807 150.25 54.5707 149.43 54.3007 148.46C54.0307 147.49 54.0107 146.48 54.2807 145.43C54.5507 144.36 55.0307 143.47 55.7407 142.75C56.4507 142.03 57.2807 141.54 58.2507 141.28C59.2207 141.02 60.2107 141.01 61.2207 141.27C62.2107 141.52 63.0807 141.99 63.8107 142.68ZM58.8807 143.21C58.3107 143.38 57.8207 143.7 57.4007 144.18C56.9807 144.66 56.6807 145.26 56.5007 145.98C56.3207 146.7 56.3007 147.37 56.4407 147.99C56.5807 148.61 56.8707 149.12 57.2907 149.53C57.7107 149.94 58.2507 150.23 58.9007 150.4C59.5507 150.56 60.1707 150.56 60.7407 150.4C61.3107 150.24 61.8107 149.92 62.2307 149.44C62.6507 148.97 62.9407 148.37 63.1307 147.65C63.3107 146.93 63.3307 146.25 63.1907 145.64C63.0507 145.03 62.7607 144.5 62.3407 144.08C61.9207 143.66 61.3707 143.37 60.7207 143.2C60.0607 143.04 59.4507 143.04 58.8807 143.21Z" fill="#124759"/>
<path d="M45.3209 138.98C45.5309 139.32 45.6309 139.68 45.6509 140.08C45.6609 140.47 45.5709 140.85 45.3809 141.21C45.1809 141.58 44.9209 141.86 44.5809 142.07C44.2409 142.28 43.8809 142.38 43.4909 142.4C43.1009 142.41 42.7209 142.32 42.3609 142.13C41.9909 141.93 41.7109 141.66 41.4909 141.33C41.2809 140.99 41.1709 140.63 41.1609 140.23C41.1509 139.84 41.2409 139.46 41.4409 139.09C41.6309 138.73 41.9009 138.45 42.2309 138.25C42.5609 138.05 42.9309 137.94 43.3309 137.93C43.7309 137.92 44.1109 138.02 44.4809 138.21C44.8309 138.38 45.1109 138.64 45.3209 138.98Z" fill="#124759"/>
<path d="M27.3792 127.7C27.4192 127.05 27.6592 126.47 28.0992 125.98C28.4992 125.53 28.9592 125.24 29.4792 125.1C29.9992 124.96 30.5492 124.97 31.1392 125.15C31.7192 125.33 32.2992 125.67 32.8692 126.17L36.4692 129.37L29.0492 137.71L25.6092 134.65C25.0392 134.15 24.6392 133.62 24.3892 133.07C24.1392 132.52 24.0592 131.99 24.1392 131.48C24.2192 130.97 24.4392 130.5 24.8092 130.09C25.2392 129.6 25.7292 129.31 26.2792 129.22C26.8292 129.12 27.3792 129.2 27.9292 129.45C27.5192 128.93 27.3392 128.35 27.3792 127.7ZM30.4192 132.78L28.8892 131.42C28.4892 131.07 28.0992 130.88 27.7292 130.87C27.3492 130.86 27.0192 131.02 26.7192 131.35C26.4192 131.68 26.2992 132.04 26.3492 132.41C26.3992 132.78 26.6292 133.15 27.0292 133.5L28.5592 134.86L30.4192 132.78ZM30.6692 127.18C30.2692 127.17 29.9192 127.34 29.6092 127.69C29.2892 128.05 29.1592 128.44 29.2192 128.85C29.2792 129.27 29.5092 129.65 29.9192 130.02L31.5692 131.49L33.5692 129.24L31.8792 127.74C31.4692 127.38 31.0692 127.19 30.6692 127.18Z" fill="#124759"/>
<path d="M19.4809 125.72L21.6509 123.95L19.2709 121.04L20.6409 119.92L23.0209 122.83L25.3109 120.96L22.6309 117.68L24.0409 116.52L28.1409 121.54L19.4809 128.62L15.3809 123.6L16.7909 122.45L19.4809 125.72Z" fill="#124759"/>
<path d="M19.02 108.47L16.74 114.48L21.05 111.99L22.17 113.93L12.5 119.51L11.38 117.57L15.72 115.07L9.35 114.06L8 111.72L15.1 112.94L17.61 106.02L19.02 108.47Z" fill="#124759"/>
<path d="M5.46094 105.67L15.7909 101.41L16.6409 103.48L6.31094 107.74L5.46094 105.67Z" fill="#124759"/>
<path d="M2.03906 94.8794L9.59906 92.7994C10.6491 92.5094 11.5491 92.5894 12.2991 93.0394C13.0491 93.4894 13.5591 94.2194 13.8391 95.2394C14.1191 96.2694 14.0491 97.1794 13.6291 97.9794C13.2091 98.7794 12.4591 99.3194 11.3891 99.6194L10.7991 97.4594C11.2591 97.3194 11.5891 97.1094 11.7891 96.8294C11.9891 96.5494 12.0291 96.2094 11.9191 95.8094C11.8091 95.4194 11.6091 95.1594 11.2991 95.0194C10.9991 94.8794 10.6291 94.8694 10.1991 94.9894L2.63906 97.0694L2.03906 94.8794Z" fill="#124759"/>
<path d="M11.38 81.9799L6.84 86.5299L11.79 86.0299L12.02 88.2599L0.91 89.3899L0.68 87.1599L5.66 86.6499L0.27 83.1099L0 80.4299L5.98 84.4499L11.1 79.1699L11.38 81.9799Z" fill="#124759"/>
<path d="M1.88945 59.7793L12.2795 65.5693L11.8595 68.2593L0.189453 70.5593L0.559453 68.1893L9.80945 66.5393L1.51945 62.1393L1.88945 59.7793Z" fill="#124759"/>
<path d="M3.74984 53.7207L14.4298 56.9707L13.7798 59.1107L3.08984 55.8607L3.74984 53.7207Z" fill="#124759"/>
<path d="M8.88078 42.9093C9.67078 42.2993 10.5508 41.9493 11.5308 41.8693C12.5008 41.7893 13.5008 41.9793 14.5108 42.4493C15.5308 42.9193 16.3108 43.5593 16.8608 44.3493C17.4108 45.1393 17.7108 46.0393 17.7508 47.0393C17.7908 48.0393 17.5608 49.0693 17.0708 50.1393L15.4208 53.6793L5.30078 48.9593L6.95078 45.4193C7.44078 44.3593 8.09078 43.5193 8.88078 42.9093ZM15.5908 46.5293C15.2808 45.6793 14.6008 45.0093 13.5408 44.5193C12.4808 44.0293 11.5308 43.9393 10.6608 44.2393C9.79078 44.5393 9.12078 45.2293 8.62078 46.2893L7.95078 47.7293L14.6408 50.8393L15.3108 49.3993C15.8108 48.3393 15.9008 47.3793 15.5908 46.5293Z" fill="#124759"/>
<path d="M14.6509 35.3108L16.9609 36.9008L19.0909 33.8008L20.5509 34.8108L18.4209 37.9108L20.8609 39.5908L23.2709 36.1008L24.7709 37.1408L21.0909 42.4808L11.8809 36.1408L15.5609 30.8008L17.0609 31.8408L14.6509 35.3108Z" fill="#124759"/>
<path d="M27.8309 32.5092C26.8709 32.7892 25.9009 32.7992 24.9209 32.5592C23.9409 32.3092 23.0609 31.8092 22.2809 31.0292C21.5109 30.2692 20.9909 29.3992 20.7309 28.4192C20.4709 27.4492 20.4709 26.4692 20.7409 25.5092C21.0109 24.5392 21.5009 23.6892 22.2409 22.9392C22.9809 22.1892 23.8309 21.6792 24.7909 21.3992C25.7509 21.1292 26.7209 21.1092 27.6909 21.3592C28.6609 21.6092 29.5409 22.1192 30.3109 22.8792C31.0909 23.6492 31.6109 24.5192 31.8809 25.4892C32.1409 26.4592 32.1409 27.4292 31.8809 28.3992C31.6209 29.3692 31.1209 30.2192 30.3809 30.9692C29.6409 31.7192 28.7909 32.2292 27.8309 32.5092ZM29.8709 27.9892C30.0109 27.4092 29.9809 26.8192 29.7809 26.2192C29.5809 25.6192 29.2109 25.0492 28.6809 24.5292C28.1509 24.0092 27.5809 23.6492 26.9809 23.4592C26.3809 23.2692 25.7909 23.2492 25.2209 23.4092C24.6509 23.5592 24.1309 23.8792 23.6509 24.3592C23.1709 24.8392 22.8709 25.3692 22.7209 25.9392C22.5709 26.5092 22.5909 27.1092 22.7909 27.6992C22.9909 28.2992 23.3509 28.8592 23.8809 29.3792C24.4109 29.8992 24.9809 30.2592 25.5809 30.4592C26.1809 30.6492 26.7809 30.6692 27.3609 30.5192C27.9409 30.3592 28.4709 30.0492 28.9409 29.5692C29.4209 29.0892 29.7309 28.5592 29.8709 27.9892Z" fill="#124759"/>
<path d="M40.3901 18.4397C40.0001 18.4497 39.6301 18.3597 39.2801 18.1697C38.9301 17.9797 38.6601 17.7097 38.4501 17.3697C38.2301 17.0097 38.1201 16.6397 38.1101 16.2397C38.1001 15.8497 38.1901 15.4797 38.3801 15.1297C38.5701 14.7797 38.8401 14.5097 39.1801 14.2997C39.5401 14.0797 39.9101 13.9697 40.3101 13.9597C40.7101 13.9497 41.0801 14.0397 41.4301 14.2297C41.7801 14.4197 42.0601 14.6897 42.2701 15.0497C42.4801 15.3997 42.5901 15.7697 42.6001 16.1597C42.6101 16.5497 42.5201 16.9297 42.3201 17.2697C42.1301 17.6197 41.8501 17.8997 41.4901 18.1197C41.1601 18.3297 40.7901 18.4297 40.3901 18.4397Z" fill="#124759"/>
</svg>
